<svg xmlns="http://www.w3.org/2000/svg" width="124" height="124" viewBox="0 0 124 124" fill="#1D3557" role="img" aria-label="Decoreformas">
  <title>Decoreformas — bloom</title>
  <g><rect x="14" y="0" width="12" height="12" rx="2"></rect><rect x="28" y="0" width="12" height="12" rx="2"></rect><rect x="84" y="0" width="12" height="12" rx="2"></rect><rect x="98" y="0" width="12" height="12" rx="2"></rect><rect x="0" y="14" width="12" height="12" rx="2"></rect><rect x="14" y="14" width="12" height="12" rx="2"></rect><rect x="28" y="14" width="12" height="12" rx="2"></rect><rect x="42" y="14" width="12" height="12" rx="2"></rect><rect x="70" y="14" width="12" height="12" rx="2"></rect><rect x="84" y="14" width="12" height="12" rx="2"></rect><rect x="98" y="14" width="12" height="12" rx="2"></rect><rect x="112" y="14" width="12" height="12" rx="2"></rect><rect x="0" y="28" width="12" height="12" rx="2"></rect><rect x="14" y="28" width="12" height="12" rx="2"></rect><rect x="28" y="28" width="12" height="12" rx="2"></rect><rect x="42" y="28" width="12" height="12" rx="2"></rect><rect x="70" y="28" width="12" height="12" rx="2"></rect><rect x="84" y="28" width="12" height="12" rx="2"></rect><rect x="98" y="28" width="12" height="12" rx="2"></rect><rect x="112" y="28" width="12" height="12" rx="2"></rect><rect x="14" y="42" width="12" height="12" rx="2"></rect><rect x="28" y="42" width="12" height="12" rx="2"></rect><rect x="84" y="42" width="12" height="12" rx="2"></rect><rect x="98" y="42" width="12" height="12" rx="2"></rect><rect x="14" y="70" width="12" height="12" rx="2"></rect><rect x="28" y="70" width="12" height="12" rx="2"></rect><rect x="84" y="70" width="12" height="12" rx="2"></rect><rect x="98" y="70" width="12" height="12" rx="2"></rect><rect x="0" y="84" width="12" height="12" rx="2"></rect><rect x="14" y="84" width="12" height="12" rx="2"></rect><rect x="28" y="84" width="12" height="12" rx="2"></rect><rect x="42" y="84" width="12" height="12" rx="2"></rect><rect x="70" y="84" width="12" height="12" rx="2"></rect><rect x="84" y="84" width="12" height="12" rx="2"></rect><rect x="98" y="84" width="12" height="12" rx="2"></rect><rect x="112" y="84" width="12" height="12" rx="2"></rect><rect x="0" y="98" width="12" height="12" rx="2"></rect><rect x="14" y="98" width="12" height="12" rx="2"></rect><rect x="28" y="98" width="12" height="12" rx="2"></rect><rect x="42" y="98" width="12" height="12" rx="2"></rect><rect x="70" y="98" width="12" height="12" rx="2"></rect><rect x="84" y="98" width="12" height="12" rx="2"></rect><rect x="98" y="98" width="12" height="12" rx="2"></rect><rect x="112" y="98" width="12" height="12" rx="2"></rect><rect x="14" y="112" width="12" height="12" rx="2"></rect><rect x="28" y="112" width="12" height="12" rx="2"></rect><rect x="84" y="112" width="12" height="12" rx="2"></rect><rect x="98" y="112" width="12" height="12" rx="2"></rect></g>
</svg>