<svg xmlns="http://www.w3.org/2000/svg" width="915" height="861" viewBox="0 0 915 861" fill="#E63946" role="img" aria-label="Decoreformas — Casa + Martillo">
  <title>Decoreformas — Casa + Martillo</title>
  <g><rect x="405" y="0" width="24" height="24" rx="4"></rect><rect x="432" y="0" width="24" height="24" rx="4"></rect><rect x="459" y="0" width="24" height="24" rx="4"></rect><rect x="486" y="0" width="24" height="24" rx="4"></rect><rect x="378" y="27" width="24" height="24" rx="4"></rect><rect x="405" y="27" width="24" height="24" rx="4"></rect><rect x="432" y="27" width="24" height="24" rx="4"></rect><rect x="459" y="27" width="24" height="24" rx="4"></rect><rect x="486" y="27" width="24" height="24" rx="4"></rect><rect x="513" y="27" width="24" height="24" rx="4"></rect><rect x="324" y="54" width="24" height="24" rx="4"></rect><rect x="351" y="54" width="24" height="24" rx="4"></rect><rect x="378" y="54" width="24" height="24" rx="4"></rect><rect x="405" y="54" width="24" height="24" rx="4"></rect><rect x="432" y="54" width="24" height="24" rx="4"></rect><rect x="459" y="54" width="24" height="24" rx="4"></rect><rect x="486" y="54" width="24" height="24" rx="4"></rect><rect x="513" y="54" width="24" height="24" rx="4"></rect><rect x="540" y="54" width="24" height="24" rx="4"></rect><rect x="567" y="54" width="24" height="24" rx="4"></rect><rect x="297" y="81" width="24" height="24" rx="4"></rect><rect x="324" y="81" width="24" height="24" rx="4"></rect><rect x="351" y="81" width="24" height="24" rx="4"></rect><rect x="378" y="81" width="24" height="24" rx="4"></rect><rect x="405" y="81" width="24" height="24" rx="4"></rect><rect x="432" y="81" width="24" height="24" rx="4"></rect><rect x="459" y="81" width="24" height="24" rx="4"></rect><rect x="486" y="81" width="24" height="24" rx="4"></rect><rect x="513" y="81" width="24" height="24" rx="4"></rect><rect x="540" y="81" width="24" height="24" rx="4"></rect><rect x="567" y="81" width="24" height="24" rx="4"></rect><rect x="594" y="81" width="24" height="24" rx="4"></rect><rect x="270" y="108" width="24" height="24" rx="4"></rect><rect x="297" y="108" width="24" height="24" rx="4"></rect><rect x="324" y="108" width="24" height="24" rx="4"></rect><rect x="351" y="108" width="24" height="24" rx="4"></rect><rect x="378" y="108" width="24" height="24" rx="4"></rect><rect x="405" y="108" width="24" height="24" rx="4"></rect><rect x="432" y="108" width="24" height="24" rx="4"></rect><rect x="459" y="108" width="24" height="24" rx="4"></rect><rect x="486" y="108" width="24" height="24" rx="4"></rect><rect x="513" y="108" width="24" height="24" rx="4"></rect><rect x="540" y="108" width="24" height="24" rx="4"></rect><rect x="567" y="108" width="24" height="24" rx="4"></rect><rect x="594" y="108" width="24" height="24" rx="4"></rect><rect x="621" y="108" width="24" height="24" rx="4"></rect><rect x="243" y="135" width="24" height="24" rx="4"></rect><rect x="270" y="135" width="24" height="24" rx="4"></rect><rect x="297" y="135" width="24" height="24" rx="4"></rect><rect x="324" y="135" width="24" height="24" rx="4"></rect><rect x="351" y="135" width="24" height="24" rx="4"></rect><rect x="378" y="135" width="24" height="24" rx="4"></rect><rect x="405" y="135" width="24" height="24" rx="4"></rect><rect x="432" y="135" width="24" height="24" rx="4"></rect><rect x="459" y="135" width="24" height="24" rx="4"></rect><rect x="486" y="135" width="24" height="24" rx="4"></rect><rect x="513" y="135" width="24" height="24" rx="4"></rect><rect x="540" y="135" width="24" height="24" rx="4"></rect><rect x="567" y="135" width="24" height="24" rx="4"></rect><rect x="594" y="135" width="24" height="24" rx="4"></rect><rect x="621" y="135" width="24" height="24" rx="4"></rect><rect x="648" y="135" width="24" height="24" rx="4"></rect><rect x="189" y="162" width="24" height="24" rx="4"></rect><rect x="216" y="162" width="24" height="24" rx="4"></rect><rect x="243" y="162" width="24" height="24" rx="4"></rect><rect x="270" y="162" width="24" height="24" rx="4"></rect><rect x="297" y="162" width="24" height="24" rx="4"></rect><rect x="324" y="162" width="24" height="24" rx="4"></rect><rect x="351" y="162" width="24" height="24" rx="4"></rect><rect x="378" y="162" width="24" height="24" rx="4"></rect><rect x="405" y="162" width="24" height="24" rx="4"></rect><rect x="432" y="162" width="24" height="24" rx="4"></rect><rect x="459" y="162" width="24" height="24" rx="4"></rect><rect x="486" y="162" width="24" height="24" rx="4"></rect><rect x="513" y="162" width="24" height="24" rx="4"></rect><rect x="540" y="162" width="24" height="24" rx="4"></rect><rect x="567" y="162" width="24" height="24" rx="4"></rect><rect x="594" y="162" width="24" height="24" rx="4"></rect><rect x="621" y="162" width="24" height="24" rx="4"></rect><rect x="648" y="162" width="24" height="24" rx="4"></rect><rect x="675" y="162" width="24" height="24" rx="4"></rect><rect x="702" y="162" width="24" height="24" rx="4"></rect><rect x="162" y="189" width="24" height="24" rx="4"></rect><rect x="189" y="189" width="24" height="24" rx="4"></rect><rect x="216" y="189" width="24" height="24" rx="4"></rect><rect x="243" y="189" width="24" height="24" rx="4"></rect><rect x="270" y="189" width="24" height="24" rx="4"></rect><rect x="297" y="189" width="24" height="24" rx="4"></rect><rect x="324" y="189" width="24" height="24" rx="4"></rect><rect x="351" y="189" width="24" height="24" rx="4"></rect><rect x="378" y="189" width="24" height="24" rx="4"></rect><rect x="405" y="189" width="24" height="24" rx="4"></rect><rect x="432" y="189" width="24" height="24" rx="4"></rect><rect x="459" y="189" width="24" height="24" rx="4"></rect><rect x="486" y="189" width="24" height="24" rx="4"></rect><rect x="513" y="189" width="24" height="24" rx="4"></rect><rect x="540" y="189" width="24" height="24" rx="4"></rect><rect x="567" y="189" width="24" height="24" rx="4"></rect><rect x="594" y="189" width="24" height="24" rx="4"></rect><rect x="621" y="189" width="24" height="24" rx="4"></rect><rect x="648" y="189" width="24" height="24" rx="4"></rect><rect x="675" y="189" width="24" height="24" rx="4"></rect><rect x="702" y="189" width="24" height="24" rx="4"></rect><rect x="729" y="189" width="24" height="24" rx="4"></rect><rect x="135" y="216" width="24" height="24" rx="4"></rect><rect x="162" y="216" width="24" height="24" rx="4"></rect><rect x="189" y="216" width="24" height="24" rx="4"></rect><rect x="216" y="216" width="24" height="24" rx="4"></rect><rect x="243" y="216" width="24" height="24" rx="4"></rect><rect x="270" y="216" width="24" height="24" rx="4"></rect><rect x="297" y="216" width="24" height="24" rx="4"></rect><rect x="324" y="216" width="24" height="24" rx="4"></rect><rect x="351" y="216" width="24" height="24" rx="4"></rect><rect x="378" y="216" width="24" height="24" rx="4"></rect><rect x="405" y="216" width="24" height="24" rx="4"></rect><rect x="432" y="216" width="24" height="24" rx="4"></rect><rect x="459" y="216" width="24" height="24" rx="4"></rect><rect x="486" y="216" width="24" height="24" rx="4"></rect><rect x="513" y="216" width="24" height="24" rx="4"></rect><rect x="540" y="216" width="24" height="24" rx="4"></rect><rect x="567" y="216" width="24" height="24" rx="4"></rect><rect x="594" y="216" width="24" height="24" rx="4"></rect><rect x="621" y="216" width="24" height="24" rx="4"></rect><rect x="648" y="216" width="24" height="24" rx="4"></rect><rect x="675" y="216" width="24" height="24" rx="4"></rect><rect x="702" y="216" width="24" height="24" rx="4"></rect><rect x="729" y="216" width="24" height="24" rx="4"></rect><rect x="756" y="216" width="24" height="24" rx="4"></rect><rect x="108" y="243" width="24" height="24" rx="4"></rect><rect x="135" y="243" width="24" height="24" rx="4"></rect><rect x="162" y="243" width="24" height="24" rx="4"></rect><rect x="189" y="243" width="24" height="24" rx="4"></rect><rect x="216" y="243" width="24" height="24" rx="4"></rect><rect x="243" y="243" width="24" height="24" rx="4"></rect><rect x="270" y="243" width="24" height="24" rx="4"></rect><rect x="297" y="243" width="24" height="24" rx="4"></rect><rect x="324" y="243" width="24" height="24" rx="4"></rect><rect x="351" y="243" width="24" height="24" rx="4"></rect><rect x="378" y="243" width="24" height="24" rx="4"></rect><rect x="405" y="243" width="24" height="24" rx="4"></rect><rect x="432" y="243" width="24" height="24" rx="4"></rect><rect x="459" y="243" width="24" height="24" rx="4"></rect><rect x="486" y="243" width="24" height="24" rx="4"></rect><rect x="513" y="243" width="24" height="24" rx="4"></rect><rect x="540" y="243" width="24" height="24" rx="4"></rect><rect x="567" y="243" width="24" height="24" rx="4"></rect><rect x="594" y="243" width="24" height="24" rx="4"></rect><rect x="621" y="243" width="24" height="24" rx="4"></rect><rect x="648" y="243" width="24" height="24" rx="4"></rect><rect x="675" y="243" width="24" height="24" rx="4"></rect><rect x="702" y="243" width="24" height="24" rx="4"></rect><rect x="729" y="243" width="24" height="24" rx="4"></rect><rect x="756" y="243" width="24" height="24" rx="4"></rect><rect x="783" y="243" width="24" height="24" rx="4"></rect><rect x="81" y="270" width="24" height="24" rx="4"></rect><rect x="108" y="270" width="24" height="24" rx="4"></rect><rect x="135" y="270" width="24" height="24" rx="4"></rect><rect x="162" y="270" width="24" height="24" rx="4"></rect><rect x="189" y="270" width="24" height="24" rx="4"></rect><rect x="216" y="270" width="24" height="24" rx="4"></rect><rect x="243" y="270" width="24" height="24" rx="4"></rect><rect x="270" y="270" width="24" height="24" rx="4"></rect><rect x="297" y="270" width="24" height="24" rx="4"></rect><rect x="324" y="270" width="24" height="24" rx="4"></rect><rect x="351" y="270" width="24" height="24" rx="4"></rect><rect x="378" y="270" width="24" height="24" rx="4"></rect><rect x="405" y="270" width="24" height="24" rx="4"></rect><rect x="432" y="270" width="24" height="24" rx="4"></rect><rect x="459" y="270" width="24" height="24" rx="4"></rect><rect x="486" y="270" width="24" height="24" rx="4"></rect><rect x="513" y="270" width="24" height="24" rx="4"></rect><rect x="540" y="270" width="24" height="24" rx="4"></rect><rect x="567" y="270" width="24" height="24" rx="4"></rect><rect x="594" y="270" width="24" height="24" rx="4"></rect><rect x="621" y="270" width="24" height="24" rx="4"></rect><rect x="648" y="270" width="24" height="24" rx="4"></rect><rect x="675" y="270" width="24" height="24" rx="4"></rect><rect x="702" y="270" width="24" height="24" rx="4"></rect><rect x="729" y="270" width="24" height="24" rx="4"></rect><rect x="756" y="270" width="24" height="24" rx="4"></rect><rect x="783" y="270" width="24" height="24" rx="4"></rect><rect x="810" y="270" width="24" height="24" rx="4"></rect><rect x="27" y="297" width="24" height="24" rx="4"></rect><rect x="54" y="297" width="24" height="24" rx="4"></rect><rect x="81" y="297" width="24" height="24" rx="4"></rect><rect x="108" y="297" width="24" height="24" rx="4"></rect><rect x="135" y="297" width="24" height="24" rx="4"></rect><rect x="162" y="297" width="24" height="24" rx="4"></rect><rect x="189" y="297" width="24" height="24" rx="4"></rect><rect x="216" y="297" width="24" height="24" rx="4"></rect><rect x="243" y="297" width="24" height="24" rx="4"></rect><rect x="270" y="297" width="24" height="24" rx="4"></rect><rect x="297" y="297" width="24" height="24" rx="4"></rect><rect x="324" y="297" width="24" height="24" rx="4"></rect><rect x="351" y="297" width="24" height="24" rx="4"></rect><rect x="378" y="297" width="24" height="24" rx="4"></rect><rect x="405" y="297" width="24" height="24" rx="4"></rect><rect x="432" y="297" width="24" height="24" rx="4"></rect><rect x="459" y="297" width="24" height="24" rx="4"></rect><rect x="486" y="297" width="24" height="24" rx="4"></rect><rect x="513" y="297" width="24" height="24" rx="4"></rect><rect x="540" y="297" width="24" height="24" rx="4"></rect><rect x="567" y="297" width="24" height="24" rx="4"></rect><rect x="594" y="297" width="24" height="24" rx="4"></rect><rect x="621" y="297" width="24" height="24" rx="4"></rect><rect x="648" y="297" width="24" height="24" rx="4"></rect><rect x="675" y="297" width="24" height="24" rx="4"></rect><rect x="702" y="297" width="24" height="24" rx="4"></rect><rect x="729" y="297" width="24" height="24" rx="4"></rect><rect x="756" y="297" width="24" height="24" rx="4"></rect><rect x="783" y="297" width="24" height="24" rx="4"></rect><rect x="810" y="297" width="24" height="24" rx="4"></rect><rect x="837" y="297" width="24" height="24" rx="4"></rect><rect x="864" y="297" width="24" height="24" rx="4"></rect><rect x="0" y="324" width="24" height="24" rx="4"></rect><rect x="27" y="324" width="24" height="24" rx="4"></rect><rect x="54" y="324" width="24" height="24" rx="4"></rect><rect x="81" y="324" width="24" height="24" rx="4"></rect><rect x="108" y="324" width="24" height="24" rx="4"></rect><rect x="135" y="324" width="24" height="24" rx="4"></rect><rect x="162" y="324" width="24" height="24" rx="4"></rect><rect x="189" y="324" width="24" height="24" rx="4"></rect><rect x="216" y="324" width="24" height="24" rx="4"></rect><rect x="243" y="324" width="24" height="24" rx="4"></rect><rect x="270" y="324" width="24" height="24" rx="4"></rect><rect x="297" y="324" width="24" height="24" rx="4"></rect><rect x="324" y="324" width="24" height="24" rx="4"></rect><rect x="567" y="324" width="24" height="24" rx="4"></rect><rect x="594" y="324" width="24" height="24" rx="4"></rect><rect x="621" y="324" width="24" height="24" rx="4"></rect><rect x="648" y="324" width="24" height="24" rx="4"></rect><rect x="675" y="324" width="24" height="24" rx="4"></rect><rect x="702" y="324" width="24" height="24" rx="4"></rect><rect x="729" y="324" width="24" height="24" rx="4"></rect><rect x="756" y="324" width="24" height="24" rx="4"></rect><rect x="783" y="324" width="24" height="24" rx="4"></rect><rect x="810" y="324" width="24" height="24" rx="4"></rect><rect x="837" y="324" width="24" height="24" rx="4"></rect><rect x="864" y="324" width="24" height="24" rx="4"></rect><rect x="891" y="324" width="24" height="24" rx="4"></rect><rect x="0" y="351" width="24" height="24" rx="4"></rect><rect x="27" y="351" width="24" height="24" rx="4"></rect><rect x="54" y="351" width="24" height="24" rx="4"></rect><rect x="81" y="351" width="24" height="24" rx="4"></rect><rect x="108" y="351" width="24" height="24" rx="4"></rect><rect x="135" y="351" width="24" height="24" rx="4"></rect><rect x="162" y="351" width="24" height="24" rx="4"></rect><rect x="189" y="351" width="24" height="24" rx="4"></rect><rect x="216" y="351" width="24" height="24" rx="4"></rect><rect x="243" y="351" width="24" height="24" rx="4"></rect><rect x="270" y="351" width="24" height="24" rx="4"></rect><rect x="756" y="351" width="24" height="24" rx="4"></rect><rect x="783" y="351" width="24" height="24" rx="4"></rect><rect x="810" y="351" width="24" height="24" rx="4"></rect><rect x="837" y="351" width="24" height="24" rx="4"></rect><rect x="864" y="351" width="24" height="24" rx="4"></rect><rect x="891" y="351" width="24" height="24" rx="4"></rect><rect x="0" y="378" width="24" height="24" rx="4"></rect><rect x="27" y="378" width="24" height="24" rx="4"></rect><rect x="54" y="378" width="24" height="24" rx="4"></rect><rect x="81" y="378" width="24" height="24" rx="4"></rect><rect x="108" y="378" width="24" height="24" rx="4"></rect><rect x="135" y="378" width="24" height="24" rx="4"></rect><rect x="162" y="378" width="24" height="24" rx="4"></rect><rect x="189" y="378" width="24" height="24" rx="4"></rect><rect x="216" y="378" width="24" height="24" rx="4"></rect><rect x="243" y="378" width="24" height="24" rx="4"></rect><rect x="756" y="378" width="24" height="24" rx="4"></rect><rect x="783" y="378" width="24" height="24" rx="4"></rect><rect x="810" y="378" width="24" height="24" rx="4"></rect><rect x="837" y="378" width="24" height="24" rx="4"></rect><rect x="864" y="378" width="24" height="24" rx="4"></rect><rect x="891" y="378" width="24" height="24" rx="4"></rect><rect x="0" y="405" width="24" height="24" rx="4"></rect><rect x="27" y="405" width="24" height="24" rx="4"></rect><rect x="54" y="405" width="24" height="24" rx="4"></rect><rect x="81" y="405" width="24" height="24" rx="4"></rect><rect x="108" y="405" width="24" height="24" rx="4"></rect><rect x="135" y="405" width="24" height="24" rx="4"></rect><rect x="162" y="405" width="24" height="24" rx="4"></rect><rect x="189" y="405" width="24" height="24" rx="4"></rect><rect x="216" y="405" width="24" height="24" rx="4"></rect><rect x="756" y="405" width="24" height="24" rx="4"></rect><rect x="783" y="405" width="24" height="24" rx="4"></rect><rect x="810" y="405" width="24" height="24" rx="4"></rect><rect x="837" y="405" width="24" height="24" rx="4"></rect><rect x="864" y="405" width="24" height="24" rx="4"></rect><rect x="891" y="405" width="24" height="24" rx="4"></rect><rect x="27" y="432" width="24" height="24" rx="4"></rect><rect x="54" y="432" width="24" height="24" rx="4"></rect><rect x="81" y="432" width="24" height="24" rx="4"></rect><rect x="108" y="432" width="24" height="24" rx="4"></rect><rect x="135" y="432" width="24" height="24" rx="4"></rect><rect x="162" y="432" width="24" height="24" rx="4"></rect><rect x="189" y="432" width="24" height="24" rx="4"></rect><rect x="216" y="432" width="24" height="24" rx="4"></rect><rect x="756" y="432" width="24" height="24" rx="4"></rect><rect x="783" y="432" width="24" height="24" rx="4"></rect><rect x="810" y="432" width="24" height="24" rx="4"></rect><rect x="837" y="432" width="24" height="24" rx="4"></rect><rect x="864" y="432" width="24" height="24" rx="4"></rect><rect x="891" y="432" width="24" height="24" rx="4"></rect><rect x="54" y="459" width="24" height="24" rx="4"></rect><rect x="81" y="459" width="24" height="24" rx="4"></rect><rect x="108" y="459" width="24" height="24" rx="4"></rect><rect x="135" y="459" width="24" height="24" rx="4"></rect><rect x="162" y="459" width="24" height="24" rx="4"></rect><rect x="189" y="459" width="24" height="24" rx="4"></rect><rect x="594" y="459" width="24" height="24" rx="4"></rect><rect x="621" y="459" width="24" height="24" rx="4"></rect><rect x="756" y="459" width="24" height="24" rx="4"></rect><rect x="783" y="459" width="24" height="24" rx="4"></rect><rect x="810" y="459" width="24" height="24" rx="4"></rect><rect x="837" y="459" width="24" height="24" rx="4"></rect><rect x="864" y="459" width="24" height="24" rx="4"></rect><rect x="891" y="459" width="24" height="24" rx="4"></rect><rect x="81" y="486" width="24" height="24" rx="4"></rect><rect x="108" y="486" width="24" height="24" rx="4"></rect><rect x="135" y="486" width="24" height="24" rx="4"></rect><rect x="162" y="486" width="24" height="24" rx="4"></rect><rect x="189" y="486" width="24" height="24" rx="4"></rect><rect x="270" y="486" width="24" height="24" rx="4"></rect><rect x="297" y="486" width="24" height="24" rx="4"></rect><rect x="324" y="486" width="24" height="24" rx="4"></rect><rect x="351" y="486" width="24" height="24" rx="4"></rect><rect x="378" y="486" width="24" height="24" rx="4"></rect><rect x="540" y="486" width="24" height="24" rx="4"></rect><rect x="567" y="486" width="24" height="24" rx="4"></rect><rect x="594" y="486" width="24" height="24" rx="4"></rect><rect x="621" y="486" width="24" height="24" rx="4"></rect><rect x="648" y="486" width="24" height="24" rx="4"></rect><rect x="675" y="486" width="24" height="24" rx="4"></rect><rect x="702" y="486" width="24" height="24" rx="4"></rect><rect x="729" y="486" width="24" height="24" rx="4"></rect><rect x="756" y="486" width="24" height="24" rx="4"></rect><rect x="783" y="486" width="24" height="24" rx="4"></rect><rect x="810" y="486" width="24" height="24" rx="4"></rect><rect x="837" y="486" width="24" height="24" rx="4"></rect><rect x="81" y="513" width="24" height="24" rx="4"></rect><rect x="108" y="513" width="24" height="24" rx="4"></rect><rect x="135" y="513" width="24" height="24" rx="4"></rect><rect x="162" y="513" width="24" height="24" rx="4"></rect><rect x="189" y="513" width="24" height="24" rx="4"></rect><rect x="243" y="513" width="24" height="24" rx="4"></rect><rect x="270" y="513" width="24" height="24" rx="4"></rect><rect x="297" y="513" width="24" height="24" rx="4"></rect><rect x="324" y="513" width="24" height="24" rx="4"></rect><rect x="351" y="513" width="24" height="24" rx="4"></rect><rect x="378" y="513" width="24" height="24" rx="4"></rect><rect x="405" y="513" width="24" height="24" rx="4"></rect><rect x="540" y="513" width="24" height="24" rx="4"></rect><rect x="567" y="513" width="24" height="24" rx="4"></rect><rect x="594" y="513" width="24" height="24" rx="4"></rect><rect x="621" y="513" width="24" height="24" rx="4"></rect><rect x="648" y="513" width="24" height="24" rx="4"></rect><rect x="675" y="513" width="24" height="24" rx="4"></rect><rect x="702" y="513" width="24" height="24" rx="4"></rect><rect x="729" y="513" width="24" height="24" rx="4"></rect><rect x="756" y="513" width="24" height="24" rx="4"></rect><rect x="783" y="513" width="24" height="24" rx="4"></rect><rect x="810" y="513" width="24" height="24" rx="4"></rect><rect x="837" y="513" width="24" height="24" rx="4"></rect><rect x="81" y="540" width="24" height="24" rx="4"></rect><rect x="108" y="540" width="24" height="24" rx="4"></rect><rect x="135" y="540" width="24" height="24" rx="4"></rect><rect x="162" y="540" width="24" height="24" rx="4"></rect><rect x="189" y="540" width="24" height="24" rx="4"></rect><rect x="216" y="540" width="24" height="24" rx="4"></rect><rect x="243" y="540" width="24" height="24" rx="4"></rect><rect x="270" y="540" width="24" height="24" rx="4"></rect><rect x="297" y="540" width="24" height="24" rx="4"></rect><rect x="324" y="540" width="24" height="24" rx="4"></rect><rect x="351" y="540" width="24" height="24" rx="4"></rect><rect x="378" y="540" width="24" height="24" rx="4"></rect><rect x="405" y="540" width="24" height="24" rx="4"></rect><rect x="513" y="540" width="24" height="24" rx="4"></rect><rect x="540" y="540" width="24" height="24" rx="4"></rect><rect x="567" y="540" width="24" height="24" rx="4"></rect><rect x="594" y="540" width="24" height="24" rx="4"></rect><rect x="621" y="540" width="24" height="24" rx="4"></rect><rect x="648" y="540" width="24" height="24" rx="4"></rect><rect x="675" y="540" width="24" height="24" rx="4"></rect><rect x="702" y="540" width="24" height="24" rx="4"></rect><rect x="729" y="540" width="24" height="24" rx="4"></rect><rect x="756" y="540" width="24" height="24" rx="4"></rect><rect x="783" y="540" width="24" height="24" rx="4"></rect><rect x="810" y="540" width="24" height="24" rx="4"></rect><rect x="837" y="540" width="24" height="24" rx="4"></rect><rect x="81" y="567" width="24" height="24" rx="4"></rect><rect x="108" y="567" width="24" height="24" rx="4"></rect><rect x="135" y="567" width="24" height="24" rx="4"></rect><rect x="162" y="567" width="24" height="24" rx="4"></rect><rect x="189" y="567" width="24" height="24" rx="4"></rect><rect x="216" y="567" width="24" height="24" rx="4"></rect><rect x="243" y="567" width="24" height="24" rx="4"></rect><rect x="270" y="567" width="24" height="24" rx="4"></rect><rect x="297" y="567" width="24" height="24" rx="4"></rect><rect x="324" y="567" width="24" height="24" rx="4"></rect><rect x="351" y="567" width="24" height="24" rx="4"></rect><rect x="378" y="567" width="24" height="24" rx="4"></rect><rect x="405" y="567" width="24" height="24" rx="4"></rect><rect x="513" y="567" width="24" height="24" rx="4"></rect><rect x="540" y="567" width="24" height="24" rx="4"></rect><rect x="567" y="567" width="24" height="24" rx="4"></rect><rect x="594" y="567" width="24" height="24" rx="4"></rect><rect x="621" y="567" width="24" height="24" rx="4"></rect><rect x="648" y="567" width="24" height="24" rx="4"></rect><rect x="675" y="567" width="24" height="24" rx="4"></rect><rect x="702" y="567" width="24" height="24" rx="4"></rect><rect x="729" y="567" width="24" height="24" rx="4"></rect><rect x="756" y="567" width="24" height="24" rx="4"></rect><rect x="783" y="567" width="24" height="24" rx="4"></rect><rect x="810" y="567" width="24" height="24" rx="4"></rect><rect x="837" y="567" width="24" height="24" rx="4"></rect><rect x="81" y="594" width="24" height="24" rx="4"></rect><rect x="108" y="594" width="24" height="24" rx="4"></rect><rect x="135" y="594" width="24" height="24" rx="4"></rect><rect x="162" y="594" width="24" height="24" rx="4"></rect><rect x="189" y="594" width="24" height="24" rx="4"></rect><rect x="216" y="594" width="24" height="24" rx="4"></rect><rect x="243" y="594" width="24" height="24" rx="4"></rect><rect x="270" y="594" width="24" height="24" rx="4"></rect><rect x="297" y="594" width="24" height="24" rx="4"></rect><rect x="324" y="594" width="24" height="24" rx="4"></rect><rect x="351" y="594" width="24" height="24" rx="4"></rect><rect x="378" y="594" width="24" height="24" rx="4"></rect><rect x="405" y="594" width="24" height="24" rx="4"></rect><rect x="513" y="594" width="24" height="24" rx="4"></rect><rect x="540" y="594" width="24" height="24" rx="4"></rect><rect x="567" y="594" width="24" height="24" rx="4"></rect><rect x="594" y="594" width="24" height="24" rx="4"></rect><rect x="621" y="594" width="24" height="24" rx="4"></rect><rect x="648" y="594" width="24" height="24" rx="4"></rect><rect x="675" y="594" width="24" height="24" rx="4"></rect><rect x="702" y="594" width="24" height="24" rx="4"></rect><rect x="729" y="594" width="24" height="24" rx="4"></rect><rect x="756" y="594" width="24" height="24" rx="4"></rect><rect x="783" y="594" width="24" height="24" rx="4"></rect><rect x="810" y="594" width="24" height="24" rx="4"></rect><rect x="837" y="594" width="24" height="24" rx="4"></rect><rect x="81" y="621" width="24" height="24" rx="4"></rect><rect x="108" y="621" width="24" height="24" rx="4"></rect><rect x="135" y="621" width="24" height="24" rx="4"></rect><rect x="162" y="621" width="24" height="24" rx="4"></rect><rect x="189" y="621" width="24" height="24" rx="4"></rect><rect x="216" y="621" width="24" height="24" rx="4"></rect><rect x="243" y="621" width="24" height="24" rx="4"></rect><rect x="270" y="621" width="24" height="24" rx="4"></rect><rect x="297" y="621" width="24" height="24" rx="4"></rect><rect x="324" y="621" width="24" height="24" rx="4"></rect><rect x="351" y="621" width="24" height="24" rx="4"></rect><rect x="378" y="621" width="24" height="24" rx="4"></rect><rect x="405" y="621" width="24" height="24" rx="4"></rect><rect x="513" y="621" width="24" height="24" rx="4"></rect><rect x="540" y="621" width="24" height="24" rx="4"></rect><rect x="567" y="621" width="24" height="24" rx="4"></rect><rect x="594" y="621" width="24" height="24" rx="4"></rect><rect x="621" y="621" width="24" height="24" rx="4"></rect><rect x="648" y="621" width="24" height="24" rx="4"></rect><rect x="675" y="621" width="24" height="24" rx="4"></rect><rect x="702" y="621" width="24" height="24" rx="4"></rect><rect x="729" y="621" width="24" height="24" rx="4"></rect><rect x="756" y="621" width="24" height="24" rx="4"></rect><rect x="783" y="621" width="24" height="24" rx="4"></rect><rect x="810" y="621" width="24" height="24" rx="4"></rect><rect x="837" y="621" width="24" height="24" rx="4"></rect><rect x="81" y="648" width="24" height="24" rx="4"></rect><rect x="108" y="648" width="24" height="24" rx="4"></rect><rect x="135" y="648" width="24" height="24" rx="4"></rect><rect x="162" y="648" width="24" height="24" rx="4"></rect><rect x="189" y="648" width="24" height="24" rx="4"></rect><rect x="216" y="648" width="24" height="24" rx="4"></rect><rect x="243" y="648" width="24" height="24" rx="4"></rect><rect x="270" y="648" width="24" height="24" rx="4"></rect><rect x="297" y="648" width="24" height="24" rx="4"></rect><rect x="324" y="648" width="24" height="24" rx="4"></rect><rect x="351" y="648" width="24" height="24" rx="4"></rect><rect x="378" y="648" width="24" height="24" rx="4"></rect><rect x="405" y="648" width="24" height="24" rx="4"></rect><rect x="513" y="648" width="24" height="24" rx="4"></rect><rect x="540" y="648" width="24" height="24" rx="4"></rect><rect x="567" y="648" width="24" height="24" rx="4"></rect><rect x="594" y="648" width="24" height="24" rx="4"></rect><rect x="621" y="648" width="24" height="24" rx="4"></rect><rect x="648" y="648" width="24" height="24" rx="4"></rect><rect x="675" y="648" width="24" height="24" rx="4"></rect><rect x="702" y="648" width="24" height="24" rx="4"></rect><rect x="729" y="648" width="24" height="24" rx="4"></rect><rect x="756" y="648" width="24" height="24" rx="4"></rect><rect x="783" y="648" width="24" height="24" rx="4"></rect><rect x="810" y="648" width="24" height="24" rx="4"></rect><rect x="837" y="648" width="24" height="24" rx="4"></rect><rect x="81" y="675" width="24" height="24" rx="4"></rect><rect x="108" y="675" width="24" height="24" rx="4"></rect><rect x="135" y="675" width="24" height="24" rx="4"></rect><rect x="162" y="675" width="24" height="24" rx="4"></rect><rect x="189" y="675" width="24" height="24" rx="4"></rect><rect x="216" y="675" width="24" height="24" rx="4"></rect><rect x="243" y="675" width="24" height="24" rx="4"></rect><rect x="270" y="675" width="24" height="24" rx="4"></rect><rect x="297" y="675" width="24" height="24" rx="4"></rect><rect x="324" y="675" width="24" height="24" rx="4"></rect><rect x="351" y="675" width="24" height="24" rx="4"></rect><rect x="378" y="675" width="24" height="24" rx="4"></rect><rect x="405" y="675" width="24" height="24" rx="4"></rect><rect x="513" y="675" width="24" height="24" rx="4"></rect><rect x="540" y="675" width="24" height="24" rx="4"></rect><rect x="567" y="675" width="24" height="24" rx="4"></rect><rect x="594" y="675" width="24" height="24" rx="4"></rect><rect x="621" y="675" width="24" height="24" rx="4"></rect><rect x="648" y="675" width="24" height="24" rx="4"></rect><rect x="675" y="675" width="24" height="24" rx="4"></rect><rect x="702" y="675" width="24" height="24" rx="4"></rect><rect x="729" y="675" width="24" height="24" rx="4"></rect><rect x="756" y="675" width="24" height="24" rx="4"></rect><rect x="783" y="675" width="24" height="24" rx="4"></rect><rect x="810" y="675" width="24" height="24" rx="4"></rect><rect x="837" y="675" width="24" height="24" rx="4"></rect><rect x="81" y="702" width="24" height="24" rx="4"></rect><rect x="108" y="702" width="24" height="24" rx="4"></rect><rect x="135" y="702" width="24" height="24" rx="4"></rect><rect x="162" y="702" width="24" height="24" rx="4"></rect><rect x="189" y="702" width="24" height="24" rx="4"></rect><rect x="216" y="702" width="24" height="24" rx="4"></rect><rect x="243" y="702" width="24" height="24" rx="4"></rect><rect x="270" y="702" width="24" height="24" rx="4"></rect><rect x="297" y="702" width="24" height="24" rx="4"></rect><rect x="324" y="702" width="24" height="24" rx="4"></rect><rect x="351" y="702" width="24" height="24" rx="4"></rect><rect x="378" y="702" width="24" height="24" rx="4"></rect><rect x="405" y="702" width="24" height="24" rx="4"></rect><rect x="513" y="702" width="24" height="24" rx="4"></rect><rect x="540" y="702" width="24" height="24" rx="4"></rect><rect x="567" y="702" width="24" height="24" rx="4"></rect><rect x="594" y="702" width="24" height="24" rx="4"></rect><rect x="621" y="702" width="24" height="24" rx="4"></rect><rect x="648" y="702" width="24" height="24" rx="4"></rect><rect x="675" y="702" width="24" height="24" rx="4"></rect><rect x="702" y="702" width="24" height="24" rx="4"></rect><rect x="729" y="702" width="24" height="24" rx="4"></rect><rect x="756" y="702" width="24" height="24" rx="4"></rect><rect x="783" y="702" width="24" height="24" rx="4"></rect><rect x="810" y="702" width="24" height="24" rx="4"></rect><rect x="837" y="702" width="24" height="24" rx="4"></rect><rect x="81" y="729" width="24" height="24" rx="4"></rect><rect x="108" y="729" width="24" height="24" rx="4"></rect><rect x="135" y="729" width="24" height="24" rx="4"></rect><rect x="162" y="729" width="24" height="24" rx="4"></rect><rect x="189" y="729" width="24" height="24" rx="4"></rect><rect x="216" y="729" width="24" height="24" rx="4"></rect><rect x="243" y="729" width="24" height="24" rx="4"></rect><rect x="270" y="729" width="24" height="24" rx="4"></rect><rect x="297" y="729" width="24" height="24" rx="4"></rect><rect x="324" y="729" width="24" height="24" rx="4"></rect><rect x="351" y="729" width="24" height="24" rx="4"></rect><rect x="378" y="729" width="24" height="24" rx="4"></rect><rect x="405" y="729" width="24" height="24" rx="4"></rect><rect x="513" y="729" width="24" height="24" rx="4"></rect><rect x="540" y="729" width="24" height="24" rx="4"></rect><rect x="567" y="729" width="24" height="24" rx="4"></rect><rect x="594" y="729" width="24" height="24" rx="4"></rect><rect x="621" y="729" width="24" height="24" rx="4"></rect><rect x="648" y="729" width="24" height="24" rx="4"></rect><rect x="675" y="729" width="24" height="24" rx="4"></rect><rect x="702" y="729" width="24" height="24" rx="4"></rect><rect x="729" y="729" width="24" height="24" rx="4"></rect><rect x="756" y="729" width="24" height="24" rx="4"></rect><rect x="783" y="729" width="24" height="24" rx="4"></rect><rect x="810" y="729" width="24" height="24" rx="4"></rect><rect x="837" y="729" width="24" height="24" rx="4"></rect><rect x="81" y="756" width="24" height="24" rx="4"></rect><rect x="108" y="756" width="24" height="24" rx="4"></rect><rect x="135" y="756" width="24" height="24" rx="4"></rect><rect x="162" y="756" width="24" height="24" rx="4"></rect><rect x="189" y="756" width="24" height="24" rx="4"></rect><rect x="216" y="756" width="24" height="24" rx="4"></rect><rect x="243" y="756" width="24" height="24" rx="4"></rect><rect x="270" y="756" width="24" height="24" rx="4"></rect><rect x="297" y="756" width="24" height="24" rx="4"></rect><rect x="324" y="756" width="24" height="24" rx="4"></rect><rect x="351" y="756" width="24" height="24" rx="4"></rect><rect x="378" y="756" width="24" height="24" rx="4"></rect><rect x="405" y="756" width="24" height="24" rx="4"></rect><rect x="513" y="756" width="24" height="24" rx="4"></rect><rect x="540" y="756" width="24" height="24" rx="4"></rect><rect x="567" y="756" width="24" height="24" rx="4"></rect><rect x="594" y="756" width="24" height="24" rx="4"></rect><rect x="621" y="756" width="24" height="24" rx="4"></rect><rect x="648" y="756" width="24" height="24" rx="4"></rect><rect x="675" y="756" width="24" height="24" rx="4"></rect><rect x="702" y="756" width="24" height="24" rx="4"></rect><rect x="729" y="756" width="24" height="24" rx="4"></rect><rect x="756" y="756" width="24" height="24" rx="4"></rect><rect x="783" y="756" width="24" height="24" rx="4"></rect><rect x="810" y="756" width="24" height="24" rx="4"></rect><rect x="837" y="756" width="24" height="24" rx="4"></rect><rect x="81" y="783" width="24" height="24" rx="4"></rect><rect x="108" y="783" width="24" height="24" rx="4"></rect><rect x="135" y="783" width="24" height="24" rx="4"></rect><rect x="162" y="783" width="24" height="24" rx="4"></rect><rect x="189" y="783" width="24" height="24" rx="4"></rect><rect x="216" y="783" width="24" height="24" rx="4"></rect><rect x="243" y="783" width="24" height="24" rx="4"></rect><rect x="270" y="783" width="24" height="24" rx="4"></rect><rect x="297" y="783" width="24" height="24" rx="4"></rect><rect x="324" y="783" width="24" height="24" rx="4"></rect><rect x="351" y="783" width="24" height="24" rx="4"></rect><rect x="378" y="783" width="24" height="24" rx="4"></rect><rect x="405" y="783" width="24" height="24" rx="4"></rect><rect x="513" y="783" width="24" height="24" rx="4"></rect><rect x="540" y="783" width="24" height="24" rx="4"></rect><rect x="567" y="783" width="24" height="24" rx="4"></rect><rect x="594" y="783" width="24" height="24" rx="4"></rect><rect x="621" y="783" width="24" height="24" rx="4"></rect><rect x="648" y="783" width="24" height="24" rx="4"></rect><rect x="675" y="783" width="24" height="24" rx="4"></rect><rect x="702" y="783" width="24" height="24" rx="4"></rect><rect x="729" y="783" width="24" height="24" rx="4"></rect><rect x="756" y="783" width="24" height="24" rx="4"></rect><rect x="783" y="783" width="24" height="24" rx="4"></rect><rect x="810" y="783" width="24" height="24" rx="4"></rect><rect x="837" y="783" width="24" height="24" rx="4"></rect><rect x="81" y="810" width="24" height="24" rx="4"></rect><rect x="108" y="810" width="24" height="24" rx="4"></rect><rect x="135" y="810" width="24" height="24" rx="4"></rect><rect x="162" y="810" width="24" height="24" rx="4"></rect><rect x="189" y="810" width="24" height="24" rx="4"></rect><rect x="216" y="810" width="24" height="24" rx="4"></rect><rect x="243" y="810" width="24" height="24" rx="4"></rect><rect x="270" y="810" width="24" height="24" rx="4"></rect><rect x="297" y="810" width="24" height="24" rx="4"></rect><rect x="324" y="810" width="24" height="24" rx="4"></rect><rect x="351" y="810" width="24" height="24" rx="4"></rect><rect x="378" y="810" width="24" height="24" rx="4"></rect><rect x="405" y="810" width="24" height="24" rx="4"></rect><rect x="540" y="810" width="24" height="24" rx="4"></rect><rect x="567" y="810" width="24" height="24" rx="4"></rect><rect x="594" y="810" width="24" height="24" rx="4"></rect><rect x="621" y="810" width="24" height="24" rx="4"></rect><rect x="648" y="810" width="24" height="24" rx="4"></rect><rect x="675" y="810" width="24" height="24" rx="4"></rect><rect x="702" y="810" width="24" height="24" rx="4"></rect><rect x="729" y="810" width="24" height="24" rx="4"></rect><rect x="756" y="810" width="24" height="24" rx="4"></rect><rect x="783" y="810" width="24" height="24" rx="4"></rect><rect x="810" y="810" width="24" height="24" rx="4"></rect><rect x="108" y="837" width="24" height="24" rx="4"></rect><rect x="135" y="837" width="24" height="24" rx="4"></rect><rect x="162" y="837" width="24" height="24" rx="4"></rect><rect x="189" y="837" width="24" height="24" rx="4"></rect><rect x="216" y="837" width="24" height="24" rx="4"></rect><rect x="243" y="837" width="24" height="24" rx="4"></rect><rect x="270" y="837" width="24" height="24" rx="4"></rect><rect x="297" y="837" width="24" height="24" rx="4"></rect><rect x="324" y="837" width="24" height="24" rx="4"></rect><rect x="351" y="837" width="24" height="24" rx="4"></rect><rect x="378" y="837" width="24" height="24" rx="4"></rect><rect x="540" y="837" width="24" height="24" rx="4"></rect><rect x="567" y="837" width="24" height="24" rx="4"></rect><rect x="594" y="837" width="24" height="24" rx="4"></rect><rect x="621" y="837" width="24" height="24" rx="4"></rect><rect x="648" y="837" width="24" height="24" rx="4"></rect><rect x="675" y="837" width="24" height="24" rx="4"></rect><rect x="702" y="837" width="24" height="24" rx="4"></rect><rect x="729" y="837" width="24" height="24" rx="4"></rect><rect x="756" y="837" width="24" height="24" rx="4"></rect><rect x="783" y="837" width="24" height="24" rx="4"></rect></g>
</svg>