<svg width="2000" height="212" viewBox="0 0 2000 212" fill="none" xmlns="http://www.w3.org/2000/svg">
<path d="M0 205.782C10.8176 202.164 13.0438 197.712 13.0438 182.407V28.1093C13.0438 12.8048 10.8176 8.3873 0 4.73507V3.34375H75.0625C118.994 3.34375 138.994 30.0224 138.994 57.2576C138.994 87.5537 117.011 117.05 75.0625 117.05C63.9319 117.05 52.2794 115.102 39.7574 111.206V182.373C39.7574 197.955 42.8183 202.095 58.4013 205.747V207.138H0.0347842V205.747L0 205.782ZM39.7574 13.3961V99.0322C48.1054 103.206 56.6969 105.154 64.7667 105.154C94.5065 105.154 110.611 80.7014 110.611 55.6576C110.611 33.9877 97.8457 13.3961 66.958 13.3961H39.7226H39.7574Z" fill="black"/>
<path d="M154.367 103.442C154.367 46.1885 204.42 0.03125 266.683 0.03125C328.945 0.03125 374.546 46.4667 374.546 107.059C374.546 164.312 324.493 210.469 262.23 210.469C199.968 210.469 154.367 164.034 154.367 103.442ZM344.528 106.781C344.528 53.1451 307.831 10.3271 261.674 10.3271C215.516 10.3271 184.385 45.3537 184.385 102.92C184.385 156.834 221.36 199.93 267.796 199.93C314.232 199.93 344.528 164.625 344.528 106.781Z" fill="black"/>
<path d="M567.32 204.912V206.303C565.094 206.86 560.642 207.138 551.737 207.138C534.519 207.138 523.11 200.738 514.206 186.025L480.014 129.607C472.501 117.085 467.248 113.189 457.787 113.189H438.343V182.407C438.343 197.677 440.57 202.129 451.387 205.782V207.173H398.586V205.782C409.404 202.164 411.63 197.712 411.63 182.407V28.1093C411.63 12.8048 409.404 8.3873 398.586 4.73507V3.34375H462.518C507.841 3.34375 530.902 24.7354 530.902 51.1358C530.902 77.5362 512.293 98.4061 487.527 105.606C499.18 111.45 510.31 125.085 524.502 149.537C547.041 189.573 555.355 200.112 567.32 204.842V204.912ZM502.553 53.7097C502.553 27.8659 485.301 13.3961 455.283 13.3961H438.343V101.258C441.961 102.093 445.578 102.371 453.335 102.371C482.797 102.371 502.553 82.8928 502.553 53.7445V53.7097Z" fill="black"/>
<path d="M560.461 104.002C560.461 48.6964 612.74 0 672.22 0C697.507 0 723.108 7.51316 746.726 21.9829V64.5227H745.335C733.091 28.6613 708.638 11.1654 671.107 11.1654C622.167 11.1654 590.479 47.8616 590.479 104.002C590.479 160.142 627.454 199.064 675.003 199.064C709.195 199.064 734.482 181.533 747.282 148.489H748.674V189.916C725.612 204.073 701.96 210.473 672.22 210.473C609.123 210.473 560.461 164.037 560.461 104.002Z" fill="black"/>
<path d="M863.292 13.3961H812.16V90.9625H849.413C865.553 90.9625 870.005 89.5712 873.866 82.8928H875.257V110.163H873.866C869.97 103.484 865.518 102.093 849.413 102.093H812.16V190.755C819.952 194.094 831.048 195.764 846.909 195.764C880.544 195.764 894.458 191.59 903.362 178.268H904.475L898.91 207.173H772.438V205.782C783.255 202.164 785.481 197.712 785.481 182.407V28.1093C785.481 12.8048 783.255 8.3873 772.438 4.73507V3.34375H892.545V21.3962H890.875C886.423 14.7178 881.692 13.3265 863.361 13.3265L863.292 13.3961Z" fill="black"/>
<path d="M992.919 195.729C1024.05 195.729 1037.68 191.277 1046.55 178.233H1047.67L1042.1 207.138H921.195V205.747C932.013 202.129 934.239 197.677 934.239 182.373V28.1093C934.239 12.8048 932.013 8.3873 921.195 4.73507V3.34375H973.996V4.73507C963.179 8.35252 960.953 12.8048 960.953 28.1093V190.721C968.744 194.06 979.284 195.729 992.919 195.729Z" fill="black"/>
<path d="M1240.41 205.774V207.165H1190.91V205.774C1198.71 202.991 1199.82 199.095 1195.92 189.634L1177.31 144.625H1096.69L1078.08 189.634C1074.18 199.095 1075.29 202.991 1083.09 205.774V207.165H1047.78V205.774C1056.13 202.991 1060.3 198.539 1064.76 188.243L1144.83 0.03125H1146.5L1223.51 188.243C1228.52 198.817 1232.41 202.991 1240.45 205.774H1240.41ZM1172.86 133.459L1137 46.745L1101.14 133.459H1172.86Z" fill="black"/>
<path d="M1415.93 157.677V28.1093C1415.93 12.8048 1413.7 8.3873 1402.88 4.73507V3.34375H1441.53V4.73507C1430.67 8.35252 1428.48 12.8048 1428.48 28.1093V211.312H1427.37L1280.03 36.4573V182.407C1280.03 197.677 1282.25 202.129 1293.11 205.782V207.173H1254.46V205.782C1265.31 202.164 1267.5 197.712 1267.5 182.407V28.1093C1267.5 12.8048 1265.28 8.3873 1254.46 4.73507V3.34375H1285.31L1415.96 157.642L1415.93 157.677Z" fill="black"/>
<path d="M1462.46 103.442C1462.46 46.1885 1512.51 0.03125 1574.78 0.03125C1637.04 0.03125 1682.64 46.4667 1682.64 107.059C1682.64 164.312 1632.59 210.469 1570.32 210.469C1508.06 210.469 1462.46 164.034 1462.46 103.442ZM1652.62 106.781C1652.62 53.1451 1615.93 10.3271 1569.77 10.3271C1523.61 10.3271 1492.48 45.3537 1492.48 102.92C1492.48 156.834 1529.45 199.93 1575.89 199.93C1622.33 199.93 1652.62 164.625 1652.62 106.781Z" fill="black"/>
<path d="M1695.55 188.243V146.26H1696.94C1706.4 178.782 1725.57 196.591 1751.72 197.147C1776.45 197.704 1790.09 182.156 1790.09 159.338C1790.09 141.251 1782.61 130.99 1764.8 122.085L1736.73 107.929C1709.22 94.0153 1699.2 79.8238 1698.64 54.8147C1698.09 22.0142 1723.37 0.03125 1762.02 0.03125C1780.91 0.03125 1797.32 5.87482 1806.19 15.6141V47.0233H1804.8C1797.84 24.2403 1780.91 10.8836 1759.2 10.8836C1737.5 10.8836 1722.78 24.2403 1722.78 45.6667C1722.78 63.1627 1729.46 72.6237 1749.18 82.363L1778.92 97.3545C1803.65 109.876 1814.51 126.259 1814.51 150.99C1814.51 184.347 1785.32 210.469 1748.07 210.469C1730.3 210.469 1704.14 199.339 1695.55 188.243Z" fill="black"/>
<path d="M2000 205.774V207.165H1950.5V205.774C1958.3 202.991 1959.41 199.095 1955.51 189.634L1936.87 144.625H1856.28L1837.63 189.634C1833.74 199.095 1834.85 202.991 1842.64 205.774V207.165H1807.34V205.774C1815.68 202.991 1819.86 198.539 1824.28 188.243L1904.35 0.03125H1906.02L1983.03 188.243C1988.04 198.817 1991.93 202.991 1999.97 205.774H2000ZM1932.45 133.459L1896.59 46.745L1860.73 133.459H1932.45Z" fill="black"/>
</svg>
