<?xml version="1.0" encoding="UTF-8" standalone="no"?>
<!-- Created with Inkscape (http://www.inkscape.org/) -->
<svg
   xmlns:dc="http://purl.org/dc/elements/1.1/"
   xmlns:cc="http://creativecommons.org/ns#"
   xmlns:rdf="http://www.w3.org/1999/02/22-rdf-syntax-ns#"
   xmlns:svg="http://www.w3.org/2000/svg"
   xmlns="http://www.w3.org/2000/svg"
   xmlns:sodipodi="http://sodipodi.sourceforge.net/DTD/sodipodi-0.dtd"
   xmlns:inkscape="http://www.inkscape.org/namespaces/inkscape"
   width="640"
   height="348.57144"
   id="svg3905"
   sodipodi:version="0.32"
   inkscape:version="0.46"
   version="1.0"
   sodipodi:docname="saunier-duval-logo.svg"
   inkscape:output_extension="org.inkscape.output.svg.inkscape">
  <defs
     id="defs3907">
    <inkscape:perspective
       sodipodi:type="inkscape:persp3d"
       inkscape:vp_x="0 : 526.18109 : 1"
       inkscape:vp_y="0 : 1000 : 0"
       inkscape:vp_z="744.09448 : 526.18109 : 1"
       inkscape:persp3d-origin="372.04724 : 350.78739 : 1"
       id="perspective3913" />
  </defs>
  <sodipodi:namedview
     id="base"
     pagecolor="#ffffff"
     bordercolor="#666666"
     borderopacity="1.0"
     inkscape:pageopacity="0.0"
     inkscape:pageshadow="2"
     inkscape:zoom="0.35"
     inkscape:cx="350"
     inkscape:cy="520"
     inkscape:document-units="px"
     inkscape:current-layer="layer1"
     showgrid="false"
     inkscape:window-width="640"
     inkscape:window-height="669"
     inkscape:window-x="407"
     inkscape:window-y="188" />
  <metadata
     id="metadata3910">
    <rdf:RDF>
      <cc:Work
         rdf:about="">
        <dc:format>image/svg+xml</dc:format>
        <dc:type
           rdf:resource="http://purl.org/dc/dcmitype/StillImage" />
      </cc:Work>
    </rdf:RDF>
  </metadata>
  <g
     inkscape:label="Ebene 1"
     inkscape:groupmode="layer"
     id="layer1"
     transform="translate(677.14285,199.06638)">
    <path
       id="path195"
       style="fill:#121b21;fill-opacity:1;fill-rule:nonzero;stroke:none"
       d="M -418.62112,79.729957 L -424.70807,79.729957 C -426.52761,79.729957 -427.98063,78.263852 -427.98063,76.4574 L -427.98063,68.668714 C -427.98063,66.862263 -426.52761,65.396157 -424.70807,65.396157 L -418.62112,65.396157 C -416.84085,65.396157 -415.32238,66.901533 -415.33547,68.668714 L -415.33547,76.4574 C -415.33547,78.263852 -416.80158,79.729957 -418.62112,79.729957" />
    <path
       id="path199"
       style="fill:#121b21;fill-opacity:1;fill-rule:nonzero;stroke:none"
       d="M -415.57109,138.59672 C -415.57109,140.41626 -417.05029,141.88236 -418.84365,141.88236 L -424.45936,141.88236 C -426.26581,141.88236 -427.74501,140.41626 -427.74501,138.59672 L -427.74501,92.964179 C -427.74501,91.157727 -426.26581,89.678531 -424.45936,89.678531 L -418.84365,89.678531 C -417.05029,89.678531 -415.57109,91.157727 -415.57109,92.964179 L -415.57109,138.59672" />
    <path
       id="path203"
       style="fill:#121b21;fill-opacity:1;fill-rule:nonzero;stroke:none"
       d="M -393.1868,120.96418 L -358.90349,120.96418 C -356.76979,120.96418 -355.60476,119.95623 -355.60476,118.64721 L -355.60476,115.36156 C -355.60476,97.676661 -364.10031,88.722944 -380.81654,88.722944 C -396.6688,88.722944 -406.13304,98.894052 -406.13304,115.96371 C -406.13304,133.81878 -397.02224,142.4976 -378.29012,142.4976 C -369.84692,142.4976 -365.27843,141.86927 -363.81233,141.6991 C -361.96661,141.50275 -360.43505,139.6832 -360.43505,137.83748 L -360.43505,133.6617 C -360.43505,131.86834 -361.80952,130.65095 -363.57671,130.83421 C -364.67628,130.95202 -370.9465,131.6458 -377.57016,131.6458 C -390.80438,131.6458 -392.59774,125.19232 -393.1868,120.96418 z M -393.35698,110.4789 L -393.16062,109.32696 C -391.69452,101.13248 -387.0213,99.443842 -380.45001,99.443842 C -372.4257,99.443842 -369.11387,102.14043 -368.22374,109.37933 L -368.10592,110.4789 L -393.35698,110.4789" />
    <path
       id="path207"
       style="fill:#121b21;fill-opacity:1;fill-rule:nonzero;stroke:none"
       d="M -335.184,94.089938 C -335.184,94.089938 -335.184,92.833276 -335.184,92.204945 C -335.184,91.589705 -335.184,89.678531 -338.46965,89.678531 L -344.07226,89.678531 C -345.89181,89.678531 -347.35791,91.157727 -347.35791,92.964179 L -347.35791,138.59672 C -347.35791,140.58643 -345.66927,141.88236 -344.07226,141.88236 L -338.46965,141.88236 C -336.6501,141.88236 -335.184,140.41626 -335.184,138.59672 L -335.184,118.05815 C -335.184,115.66264 -334.76511,111.78793 -334.2415,109.43169 C -333.443,106.08059 -330.26207,100.89686 -323.71696,100.89686 C -320.30041,100.89686 -319.44954,100.94922 -319.34482,100.9754 C -317.52528,101.13248 -316.19008,99.797278 -316.19008,98.082458 L -316.19008,93.304524 C -316.19008,90.503216 -317.3682,89.338185 -319.41027,89.338185 C -319.41027,89.338185 -320.10406,89.312005 -321.43926,89.312005 C -326.41355,89.312005 -328.42944,90.254501 -330.28825,91.039915 C -332.57904,91.995502 -333.63935,92.911818 -335.184,94.089938" />
    <path
       id="path211"
       style="fill:#121b21;fill-opacity:1;fill-rule:nonzero;stroke:none"
       d="M -117.4935,89.678531 L -123.52809,89.678531 C -125.49163,89.678531 -127.78242,91.210088 -128.54165,92.990359 L -142.69219,126.68461 L -156.97363,92.990359 C -157.74595,91.210088 -160.03674,89.678531 -162.00027,89.678531 L -168.63702,89.678531 C -170.16858,89.678531 -170.98017,90.647208 -170.29948,92.218035 L -150.10126,138.57054 C -149.15876,140.73042 -147.27377,141.88236 -145.02225,141.88236 L -140.96428,141.88236 C -138.59495,141.88236 -136.86703,140.80896 -135.91145,138.57054 L -115.81795,92.218035 C -115.17653,90.725749 -115.85722,89.678531 -117.4935,89.678531" />
    <path
       id="path215"
       style="fill:#121b21;fill-opacity:1;fill-rule:nonzero;stroke:none"
       d="M -44.42384,138.59672 C -44.42384,140.40317 -45.876855,141.88236 -47.696397,141.88236 L -53.312105,141.88236 C -55.118557,141.88236 -56.597753,140.41626 -56.597753,138.59672 L -56.597753,68.668714 C -56.597753,66.862263 -55.118557,65.383067 -53.312105,65.383067 L -47.696397,65.383067 C -45.706682,65.383067 -44.42384,67.058616 -44.42384,68.668714 L -44.42384,138.59672" />
    <path
       id="path219"
       style="fill:#121b21;fill-opacity:1;fill-rule:nonzero;stroke:none"
       d="M -566.63233,108.98662 C -566.90723,105.15118 -566.90723,99.92818 -577.70667,99.92818 C -589.00353,99.92818 -592.76043,100.5696 -594.42289,100.8445 C -595.92826,101.08012 -597.38128,100.39943 -597.38128,98.475165 L -597.38128,94.548096 C -597.38128,92.650013 -595.83663,90.686479 -593.99091,90.241411 C -592.10592,89.783253 -586.03205,89.076381 -576.86889,89.076381 C -561.12135,89.076381 -554.19662,95.516773 -554.19662,111.99737 L -554.19662,138.60981 C -554.19662,140.41626 -555.66272,141.89545 -557.48226,141.89545 L -563.08488,141.89545 C -566.37053,141.89545 -566.37053,139.98428 -566.37053,139.36904 C -566.37053,138.74071 -566.37053,137.48405 -566.37053,137.48405 C -567.90208,138.66217 -569.30274,139.93192 -571.6328,140.78278 C -571.68516,140.79587 -576.41073,142.85104 -582.52387,142.85104 C -595.56174,142.85104 -602.78754,137.87675 -602.78754,126.55371 C -602.78754,113.974 -594.2789,110.98942 -581.50283,110.37418 C -576.29292,110.13856 -569.56454,109.52332 -566.63233,108.98662 z M -566.37053,118.5163 C -570.33687,119.22318 -574.90536,119.60279 -580.78287,119.89078 C -588.59774,120.25731 -590.37801,121.40925 -590.37801,126.06937 C -590.37801,130.42841 -588.87263,132.48358 -580.35089,132.48358 C -574.99699,132.48358 -571.0961,131.31855 -568.77913,128.98849 C -567.18212,127.37839 -566.37053,125.27086 -566.37053,122.70518 L -566.37053,118.5163" />
    <path
       id="path223"
       style="fill:#121b21;fill-opacity:1;fill-rule:nonzero;stroke:none"
       d="M -79.453292,108.98662 C -79.728187,105.15118 -79.728187,99.92818 -90.527625,99.92818 C -101.82449,99.92818 -105.58139,100.5696 -107.24385,100.8445 C -108.74922,101.08012 -110.21533,100.39943 -110.21533,98.475165 L -110.21533,94.548096 C -110.21533,92.650013 -108.6445,90.686479 -106.81187,90.241411 C -104.92688,89.783253 -98.853011,89.076381 -89.702941,89.076381 C -73.942306,89.076381 -67.017575,95.516773 -67.017575,111.99737 L -67.017575,138.60981 C -67.017575,140.41626 -68.48368,141.89545 -70.303222,141.89545 L -75.90584,141.89545 C -79.191487,141.89545 -79.191487,139.98428 -79.191487,139.36904 C -79.191487,138.74071 -79.191487,137.48405 -79.191487,137.48405 C -80.723044,138.66217 -82.123699,139.93192 -84.46685,140.78278 C -84.50612,140.79587 -89.231693,142.85104 -95.35792,142.85104 C -108.39579,142.85104 -115.62159,137.87675 -115.62159,126.55371 C -115.62159,113.974 -107.11295,110.98942 -94.323792,110.37418 C -89.126971,110.13856 -82.385503,109.52332 -79.453292,108.98662 z M -79.191487,118.5163 C -83.157827,119.22318 -87.726316,119.60279 -93.603829,119.89078 C -101.40561,120.25731 -103.19897,121.40925 -103.19897,126.06937 C -103.19897,130.42841 -101.69359,132.48358 -93.184942,132.48358 C -87.817948,132.48358 -83.93015,131.31855 -81.600089,128.98849 C -80.003082,127.37839 -79.191487,125.27086 -79.191487,122.70518 L -79.191487,118.5163" />
    <path
       id="path227"
       style="fill:#121b21;fill-opacity:1;fill-rule:nonzero;stroke:none"
       d="M -266.43412,65.396157 L -289.87872,65.396157 C -291.69826,65.396157 -293.16437,66.862263 -293.16437,68.681804 L -293.16437,138.60981 C -293.16437,140.41626 -291.69826,141.89545 -289.87872,141.89545 L -266.55193,141.89545 C -243.77493,141.89545 -232.21626,128.96231 -232.21626,103.47563 C -232.21626,78.211491 -243.72257,65.396157 -266.43412,65.396157 z M -267.87404,130.45459 L -280.50611,130.45459 L -280.55848,76.614483 L -267.93949,76.614483 C -251.00074,76.614483 -245.52902,83.683206 -245.52902,104.30032 C -245.52902,126.38353 -253.18681,130.45459 -267.87404,130.45459" />
    <path
       id="path231"
       style="fill:#121b21;fill-opacity:1;fill-rule:nonzero;stroke:none"
       d="M -520.27983,142.85104 C -536.05356,142.85104 -544.15641,135.16708 -544.15641,119.21009 L -544.15641,92.964179 C -544.15641,91.288629 -542.75576,89.678531 -540.87076,89.678531 L -535.26814,89.678531 C -533.46169,89.678531 -531.9825,91.157727 -531.9825,92.964179 L -531.9825,118.13669 C -531.9825,129.89171 -528.88011,132.48358 -520.39764,132.48358 C -511.3523,132.48358 -508.44627,129.00158 -508.44627,118.13669 L -508.44627,92.964179 C -508.44627,91.183907 -506.99325,89.678531 -505.16062,89.678531 L -499.558,89.678531 C -497.76464,89.678531 -496.27235,91.157727 -496.27235,92.964179 L -496.27235,119.21009 C -496.27235,134.89218 -504.36211,142.85104 -520.27983,142.85104" />
    <path
       id="path235"
       style="fill:#121b21;fill-opacity:1;fill-rule:nonzero;stroke:none"
       d="M -438.76698,138.59672 L -438.76698,111.1596 C -438.76698,95.215698 -444.60522,88.722944 -458.91284,88.722944 C -465.16997,88.722944 -469.29339,89.704712 -472.31723,91.90387 L -473.86188,93.04272 L -473.86188,92.204945 C -473.86188,91.576614 -473.86188,89.678531 -477.14753,89.678531 L -482.76324,89.678531 C -484.58278,89.678531 -486.04888,91.170817 -486.04888,92.964179 L -486.04888,138.59672 C -486.04888,140.41626 -484.56969,141.88236 -482.76324,141.88236 L -477.14753,141.88236 C -475.35417,141.88236 -473.87497,140.41626 -473.87497,138.59672 L -473.87497,112.233 C -473.87497,102.52005 -471.88526,99.090406 -462.40793,99.090406 C -453.41494,99.090406 -450.94089,101.91789 -450.94089,112.233 L -450.94089,138.59672 C -450.94089,140.41626 -449.44861,141.88236 -447.65524,141.88236 L -442.03954,141.88236 C -440.24617,141.88236 -438.76698,140.41626 -438.76698,138.59672" />
    <path
       id="path239"
       style="fill:#121b21;fill-opacity:1;fill-rule:nonzero;stroke:none"
       d="M -199.70013,142.85104 C -215.47386,142.85104 -223.5898,135.16708 -223.5898,119.21009 L -223.5898,92.964179 C -223.5898,91.288629 -222.18915,89.678531 -220.30415,89.678531 L -214.68844,89.678531 C -212.89508,89.678531 -211.4028,91.157727 -211.4028,92.964179 L -211.4028,118.13669 C -211.4028,129.89171 -208.3135,132.48358 -199.81794,132.48358 C -190.78569,132.48358 -187.87966,129.00158 -187.87966,118.13669 L -187.87966,92.964179 C -187.87966,91.183907 -186.41355,89.678531 -184.58092,89.678531 L -178.99139,89.678531 C -177.17185,89.678531 -175.69265,91.157727 -175.69265,92.964179 L -175.69265,119.21009 C -175.69265,134.89218 -183.78241,142.85104 -199.70013,142.85104" />
    <path
       id="path243"
       style="fill:#ed1b2e;fill-opacity:1;fill-rule:evenodd;stroke:none"
       d="M -251.77306,-125.07976 C -256.56409,-131.76887 -267.86095,-143.06573 -286.73706,-143.06573 C -304.18634,-143.06573 -323.54679,-132.08303 -328.90069,-108.83479 C -330.3537,-102.57766 -329.93482,-96.294348 -328.52107,-90.429925 C -333.82262,-91.673497 -338.57437,-94.72352 -342.38363,-100.47013 C -351.82168,-114.67303 -407.2588,-196.51314 -407.2588,-196.51314 C -408.65945,-195.84554 -410.98951,-194.65433 -414.3537,-192.53371 C -427.74501,-184.07742 -417.10265,-169.24619 -413.84318,-164.57298 C -412.58652,-162.79271 -364.37521,-91.385512 -364.37521,-91.385512 C -364.37521,-91.385512 -370.29199,-88.139135 -373.18493,-92.485091 C -376.06478,-96.844137 -432.77165,-180.67396 -432.77165,-180.67396 C -434.853,-179.09004 -436.90817,-177.71557 -439.95819,-174.41683 C -446.85674,-166.91613 -441.75155,-156.69266 -437.88993,-151.1555 C -436.63327,-149.36213 -397.51967,-91.385512 -397.51967,-91.385512 C -397.51967,-91.385512 -403.99933,-88.662744 -406.64356,-92.642174 C -409.28778,-96.608513 -452.56408,-160.60664 -452.56408,-160.60664 C -453.66366,-159.17981 -455.889,-156.96756 -458.1667,-153.26302 C -464.08348,-143.60243 -458.9652,-136.02319 -456.38643,-132.21394 C -455.06431,-130.2504 -428.72677,-91.241519 -428.72677,-91.241519 C -428.72677,-91.241519 -434.74828,-88.505662 -437.07834,-92.013843 C -439.4084,-95.522024 -466.84552,-136.08864 -466.84552,-136.08864 C -467.91892,-134.33455 -469.13631,-132.69827 -470.94276,-127.55381 C -474.16296,-118.35138 -472.14706,-113.07602 -468.84832,-108.18028 L -457.4991,-91.385512 C -457.4991,-91.385512 -463.12789,-88.453301 -465.56268,-92.105474 C -467.85347,-95.535114 -476.49302,-108.29809 -476.49302,-108.29809 C -489.62252,-8.5243644 -413.73846,32.39569 -357.13631,32.39569 C -306.59494,32.39569 -276.70995,7.7729703 -263.86843,-8.105477 C -226.1293,-54.824503 -235.34483,-102.10641 -251.77306,-125.07976 z M -346.61177,-60.008234 L -327.63094,-87.196639 C -325.16997,-79.26396 -321.3869,-73.307906 -315.0905,-67.888551 L -346.61177,-60.008234 z M -291.22701,-91.84367 C -295.52061,-91.961482 -298.91098,-95.548205 -298.79316,-99.8418 C -298.67535,-104.1223 -295.10172,-107.51267 -290.79503,-107.39486 C -286.50144,-107.27705 -283.11107,-103.70342 -283.22888,-99.396732 C -283.35978,-95.116227 -286.92033,-91.725858 -291.22701,-91.84367" />
    <path
       id="path247"
       style="fill:#121b21;fill-opacity:1;fill-rule:nonzero;stroke:none"
       d="M -642.90909,142.35361 C -610.65477,143.09975 -609.68609,126.78933 -609.68609,119.4588 C -609.68609,103.77671 -617.97221,97.388676 -638.24897,97.388676 C -649.20549,97.388676 -653.6169,96.668713 -655.69825,94.574277 C -657.26908,92.990359 -657.2429,90.228321 -657.20362,87.479373 C -657.12508,79.690687 -655.80297,75.89452 -636.93995,76.156325 C -628.10405,76.274137 -620.7997,76.954829 -617.29152,77.282085 C -615.34107,77.465348 -614.13677,76.130144 -614.13677,74.441505 L -614.13677,69.794474 C -614.13677,67.961842 -615.66833,66.233932 -617.50096,66.037578 C -617.59259,66.037578 -626.79502,65.081991 -637.75154,64.924909 C -659.3766,64.636924 -669.86188,71.941271 -669.86188,86.995034 C -669.86188,102.38914 -661.68048,108.94735 -642.49021,108.94735 C -640.7623,108.94735 -638.44533,109.03898 -638.44533,109.03898 C -623.75809,109.49714 -622.44907,112.18063 -622.44907,119.69443 C -622.44907,127.69256 -625.25038,131.04365 -642.58184,131.04365 C -642.81746,131.04365 -643.28871,131.03056 -643.61597,131.01747 C -655.78988,130.83421 -665.08394,129.61682 -665.17557,129.59064 C -667.07366,129.34192 -668.29105,130.7164 -668.29105,132.3265 L -668.29105,136.94735 C -668.29105,138.79307 -666.75949,140.53407 -664.92686,140.73042 C -663.73565,140.87442 -653.14565,142.11799 -642.90909,142.35361" />
  </g>
</svg>
